<svg id="Layer_1" data-name="Layer 1" xmlns="http://www.w3.org/2000/svg" viewBox="0 0 130 130"><path d="M79.13,33A20.16,20.16,0,0,0,68,37.34c-.42.34-1.56,1.39-2.53,2.35L48.92,56.05c-8.15,8-15.13,15-15.52,15.42A15.44,15.44,0,0,0,43.24,97a20.33,20.33,0,0,0,3.66,0A15.65,15.65,0,0,0,55,93.48c.76-.63,33.06-32.5,33.81-33.35A11,11,0,0,0,91,56.27a9,9,0,0,0,.5-3.07A9.26,9.26,0,0,0,91.39,51a11.27,11.27,0,0,0-8.87-9,14.35,14.35,0,0,0-4.19,0,11.26,11.26,0,0,0-2.74.95c-1.71.84-1,.2-14.8,14-14,14-13,12.93-13,14A2.06,2.06,0,0,0,49,72.82,1.53,1.53,0,0,0,50,73a2.33,2.33,0,0,0,.93-.2c.29-.14,2.71-2.52,12.89-12.69,8.31-8.3,12.68-12.61,13-12.79a6.83,6.83,0,0,1,4.49-1.05A6.64,6.64,0,0,1,87,54.21a6.82,6.82,0,0,1-2.15,3.69C74.16,68.46,52.51,89.8,52.21,90.05a11.14,11.14,0,0,1-12,1.49A11,11,0,0,1,35.08,76.9a11.3,11.3,0,0,1,1.36-2.2c.31-.4,30.56-30.33,32.81-32.47a15.31,15.31,0,0,1,4.57-3.16,14.89,14.89,0,0,1,5.81-1.34A15.27,15.27,0,0,1,90.83,42a15.46,15.46,0,0,1,4.6,8.52,19.63,19.63,0,0,1,.14,4.34,15.83,15.83,0,0,1-3.49,8.24C91.79,63.4,86,69.23,79.22,76c-13.4,13.37-12.6,12.53-12.68,13.44a2,2,0,0,0,.66,1.71,1.94,1.94,0,0,0,1.72.65c.89-.07.14.64,13.9-13.14,7-7,12.93-13,13.19-13.32a19.92,19.92,0,0,0-8.3-31A20.61,20.61,0,0,0,79.13,33Z"/></svg>