<svg xmlns="http://www.w3.org/2000/svg" viewBox="0 0 1080 1080"><g id="Layer_2" data-name="Layer 2"><path d="M594.23,849.54c3.31-.58,6.59-1.22,9.86-1.9,139.38-29.49,244-153.2,244-301.36,0-170.14-137.92-308.07-308.06-308.07S231.94,376.14,231.94,546.28c0,158.65,119.94,289.27,274.09,306.19q5,.49,10,.85a8.81,8.81,0,0,1,1.13.17q11.32.84,22.88.85a310.56,310.56,0,0,0,36-2.11C582.12,851.44,588.19,850.6,594.23,849.54ZM673.88,413a40.88,40.88,0,0,1-.77,81.76c-22.3-.06-40.8-18.68-40.68-40.93A41.18,41.18,0,0,1,673.88,413Zm-266.75,0c22.31.25,40.68,19,40.44,41.2A40.86,40.86,0,1,1,407.13,413ZM423.84,700C405,687.4,387.63,672.4,370.38,657.59c-12.24-10.52-12.58-26.3-2.42-36.89s25.71-10.24,37.52,1.18C429.4,645,456,664.16,487.16,676.3c50,19.48,97.4,12.66,141.35-16.76,16.41-11,30.94-24.84,45.93-37.86,7.57-6.57,15.44-10.3,25.47-7.61,18.14,4.86,25.37,27,12.39,40.51-37.53,39.2-80.59,69.51-135.32,79.49-11.37,2.07-23,2.73-28.89,3.41C499.05,737,459.53,723.68,423.84,700Z"/></g></svg>