<svg xmlns="http://www.w3.org/2000/svg" width="15.949" height="28.2" viewBox="0 0 15.949 28.2">
  <path id="ic_attach_money_24px" d="M14.905,15.377c-3.556-.924-4.7-1.88-4.7-3.368,0-1.708,1.582-2.9,4.23-2.9,2.789,0,3.823,1.332,3.917,3.29h3.462a6.245,6.245,0,0,0-5.029-5.969V3h-4.7V6.384C9.046,7.042,6.6,9.016,6.6,12.04c0,3.619,2.992,5.421,7.363,6.47,3.917.94,4.7,2.319,4.7,3.776,0,1.081-.768,2.8-4.23,2.8-3.227,0-4.5-1.441-4.669-3.29H6.32c.188,3.431,2.757,5.358,5.765,6v3.4h4.7V27.831c3.055-.58,5.483-2.35,5.483-5.562C22.269,17.821,18.462,16.3,14.905,15.377Z" transform="translate(-6.32 -3)" fill="#acacac"/>
</svg>
