<svg xmlns="http://www.w3.org/2000/svg" width="24" height="18" viewBox="0 0 24 18">
  <path id="ic_people_24px" d="M17.364,12.714a3.588,3.588,0,0,0,3.262-3.857A3.588,3.588,0,0,0,17.364,5a3.6,3.6,0,0,0-3.273,3.857A3.6,3.6,0,0,0,17.364,12.714Zm-8.727,0A3.588,3.588,0,0,0,11.9,8.857,3.588,3.588,0,0,0,8.636,5,3.6,3.6,0,0,0,5.364,8.857,3.6,3.6,0,0,0,8.636,12.714Zm0,2.571c-2.542,0-7.636,1.5-7.636,4.5V23H16.273V19.786C16.273,16.79,11.178,15.286,8.636,15.286Zm8.727,0c-.316,0-.676.026-1.058.064a5.684,5.684,0,0,1,2.149,4.436V23H25V19.786C25,16.79,19.905,15.286,17.364,15.286Z" transform="translate(-1 -5)" fill="#acacac"/>
</svg>
