<svg id="Layer_2" data-name="Layer 2" xmlns="http://www.w3.org/2000/svg" viewBox="0 0 1080 1080"><path d="M693.58,369.08h74.2V251.16a38.43,38.43,0,0,0-38.43-38.45h-89V286.9h53.2Z"/><path d="M300.79,286.9h50.63V212.71H265a38.45,38.45,0,0,0-38.45,38.45V799.39A38.46,38.46,0,0,0,265,837.84H396.91v-74.2H300.79Z"/><path d="M611.77,289.58V206.77a23,23,0,0,0-23-23H403a23,23,0,0,0-23,23v5.94h0V286.9h0v2.68a23,23,0,0,0,23,23.05H588.75A23,23,0,0,0,611.77,289.58Z"/><path d="M836.17,397.69H442.74a17.24,17.24,0,0,0-17.24,17.24V879a17.25,17.25,0,0,0,17.24,17.24H836.17A17.25,17.25,0,0,0,853.41,879V414.93A17.24,17.24,0,0,0,836.17,397.69ZM695.26,768.19a14.21,14.21,0,1,1,0,28.41H523.57a14.21,14.21,0,1,1,0-28.41ZM777.83,707a14.18,14.18,0,0,1-10.05,4.16H523.57a14.21,14.21,0,1,1,0-28.41H767.78A14.21,14.21,0,0,1,777.83,707ZM509.36,611.53a14.2,14.2,0,0,1,14.21-14.2H695.26a14.21,14.21,0,1,1,0,28.41H523.57A14.21,14.21,0,0,1,509.36,611.53Zm268.47-75.38a14.18,14.18,0,0,1-10.05,4.16H523.57a14.21,14.21,0,1,1,0-28.41H767.78a14.21,14.21,0,0,1,10.05,24.25Z"/></svg>