<svg id="Layer_1" data-name="Layer 1" xmlns="http://www.w3.org/2000/svg" viewBox="0 0 1080 1080"><defs><style>.cls-1{fill:#fff;}.cls-2{fill:#d4d4d4;}</style></defs><circle class="cls-1" cx="544.7" cy="550.09" r="425.87"/><path class="cls-2" d="M823.52,678.62c-19.25,21.91-45.43,29.67-73.92,36,0-5.87.38-11.26-.07-16.59-1.65-19.3-2.58-38.73-5.64-57.82-4.79-30-17-56.57-41.9-75.54-8-6.09-16.9-11-25-16.15,7.45-1.56,15.7-2.48,23.35-5.13,6-2.08,11.25-6.32,16.88-9.53,1.45-.83,3.23-2.19,4.59-1.93,18.67,3.61,37.19,7.7,54.65,15.7,23.27,10.68,36.79,28.92,41.33,53.66,2.41,13.13,3.19,26.57,4.65,39.88.45,4.11.72,8.24,1.07,12.36Z"/><path class="cls-2" d="M552.35,787c-43.37-.2-79-2.49-113.82-11.49-21.9-5.65-42.88-13.45-60.87-27.73-1.7-1.35-3.27-2.87-4.92-4.29-5.93-5.14-8.81-11.15-8.35-19.46,1.48-26.6.93-53.34,6.06-79.66,3.3-16.88,8.66-32.93,19.84-46.48,13.46-16.31,31.47-25.49,51.12-31.46,15.39-4.69,31.19-8.06,46.89-11.68a8.72,8.72,0,0,1,6.64,1.79c15.12,13.17,33.1,17.55,52.49,17,18.05-.47,34.66-5.36,48.22-18.16a5.82,5.82,0,0,1,4.43-.9c23.53,4.43,46.78,9.74,68.62,20.09,27.34,13,42.66,34.86,49.14,63.84,4.86,21.74,5.66,43.83,6.5,65.93.24,6.53-.08,13.12.7,19.58,1,8-2.2,13.87-7.81,19.14-10.89,10.21-23.64,17.3-37.31,22.91-28.67,11.75-58.83,16.72-89.47,19.16C575.27,786.39,560,786.67,552.35,787Z"/><path class="cls-2" d="M449.43,423.57c.27-18.56,1.67-36.94,7.19-54.82,9.7-31.42,31.57-48.53,63.38-53.6a152.74,152.74,0,0,1,53,.67c31.53,6,52.4,24.29,60.39,55.4C642.08,404.88,644,439,633,472.61c-9.34,28.47-26.11,51.56-54,64.35-32.54,14.92-62.85,9.18-89.53-13.81-25.07-21.6-36.55-50.28-39.51-82.73-.26-2.89-.38-5.8-.47-8.7C449.36,429,449.43,426.28,449.43,423.57Z"/><path class="cls-2" d="M439.93,339.27c-21.69,59.45-24.37,117.39,7.12,174.61a57.44,57.44,0,0,1-28.86,9.93c-29.43,2-50.73-11.81-66.53-35.4a97.82,97.82,0,0,1-16.34-50c-1-19.27-.09-38.42,5.48-57.07,7.38-24.75,24.39-38.81,49.36-43.33A120.53,120.53,0,0,1,439.93,339.27Z"/><path class="cls-2" d="M649.54,339.2c19.59-4.25,39.54-4.71,59.23,1.11,19,5.61,32.6,18,38.41,36.86C757,409.08,759,441.43,745.94,473c-9.92,24-26.54,41.89-52.52,49-18.06,4.91-35.11,1.7-51.07-7.93C674,457,671.31,398.91,649.54,339.2Z"/><path class="cls-2" d="M413,549c-15.72,7.73-30.2,17.24-41.52,30.94-15.86,19.21-23.79,41.84-26.95,66.07-2.41,18.49-3.25,37.19-4.74,55.8-.31,3.95-.39,7.93-.6,12.47a177,177,0,0,1-40.06-12c-10.65-4.76-20.66-10.54-28.82-19.12-3-3.16-4.65-6.51-4.45-11.11,1.05-24.09.82-48.23,5.85-72,6.61-31.24,26.87-49.24,56.15-58.26,12.79-3.93,26-6.6,39-9.67a5.52,5.52,0,0,1,4.37.9c10.38,9.62,22.93,13.51,36.69,14.4,1.62.11,3.24.38,4.84.63C412.9,548.07,412.93,548.6,413,549Z"/></svg>