<svg id="Layer_2" data-name="Layer 2" xmlns="http://www.w3.org/2000/svg" viewBox="0 0 1080 1080"><path d="M693,794.64H384.28A40.71,40.71,0,0,1,343.62,754V325.3a40.71,40.71,0,0,1,40.66-40.66H693a40.71,40.71,0,0,1,40.66,40.66V754A40.71,40.71,0,0,1,693,794.64Zm-308.68-480a10.67,10.67,0,0,0-10.66,10.66V754a10.67,10.67,0,0,0,10.66,10.66H693A10.68,10.68,0,0,0,703.62,754V325.3A10.68,10.68,0,0,0,693,314.64Z"/><polygon points="447.02 527.09 447.02 299.64 477.02 299.64 477.02 472.52 514.98 448.44 555.28 473.06 555.28 299.64 585.28 299.64 585.28 526.55 515.28 483.78 447.02 527.09"/></svg>